<svg width="87" height="87" viewBox="0 0 87 87" fill="none" xmlns="http://www.w3.org/2000/svg">
<g clip-path="url(#clip0_2_113)">
<path d="M22.2989 0H64.7742C65.6635 0.141715 66.5657 0.231896 67.4422 0.431585C77.2957 2.64749 83.6177 8.60596 86.3244 18.3456C86.6724 19.6339 86.8013 20.9223 87.0333 22.2428V64.6992C86.9818 65.0084 86.9495 65.3112 86.8722 65.6075C86.2793 67.8749 86.0022 70.2777 85.0355 72.3712C80.6726 81.7501 73.21 86.7617 62.8989 86.9034C50.01 87.0837 37.076 86.9614 24.1613 86.942C19.2542 87.0108 14.452 85.5198 10.4475 82.6841C3.52619 77.7563 0.0655452 70.9734 0.0397675 62.4898C0.0096934 49.8085 0.0096934 37.1271 0.0397675 24.4458C0.0108114 22.8051 0.157718 21.166 0.477985 19.5566C2.64976 9.70746 8.64955 3.45269 18.3678 0.715016C19.6309 0.360729 20.9649 0.231897 22.2989 0ZM7.75375 43.4742C7.75375 49.7569 7.75375 56.0396 7.75375 62.3223C7.70566 64.3058 8.0022 66.2826 8.63018 68.1648C11.0855 75.0444 17.008 79.2186 24.49 79.2315C37.1727 79.2315 49.8553 79.2766 62.5122 79.1993C64.4329 79.2101 66.343 78.9144 68.1704 78.3232C75.1304 75.9849 79.2742 69.9491 79.2871 62.4447C79.2871 49.7999 79.3257 37.1486 79.2484 24.4973C79.2603 22.5784 78.9688 20.6697 78.3849 18.8416C76.0649 11.9169 70.0522 7.73634 62.596 7.71702C49.879 7.68696 37.1662 7.68696 24.4577 7.71702C18.7544 7.71702 14.1466 9.97156 10.7633 14.5837C8.68718 17.4815 7.61871 20.9797 7.72153 24.5424C7.73442 30.8552 7.72153 37.1679 7.72153 43.4742H7.75375Z" fill="#F2F2F2"/>
<path d="M43.52 65.8844C39.0868 65.887 34.7524 64.5758 31.0645 62.1166C27.3767 59.6573 24.501 56.1605 22.801 52.068C21.1009 47.9756 20.6528 43.4712 21.5133 39.1243C22.3738 34.7773 24.5043 30.7829 27.6354 27.6459C30.7666 24.509 34.7578 22.3703 39.1047 21.5002C43.4516 20.6301 47.959 21.0676 52.0572 22.7575C56.1554 24.4474 59.6604 27.3137 62.1291 30.9943C64.5979 34.6748 65.9197 39.0043 65.9273 43.4355C65.9104 49.3752 63.5458 55.0676 59.3488 59.2724C55.1517 63.4773 49.4623 65.8539 43.52 65.8844V65.8844ZM58.1875 43.4871C58.1914 40.5833 57.3336 37.7436 55.7227 35.3272C54.1117 32.9107 51.8201 31.0261 49.1375 29.9116C46.4549 28.7972 43.5019 28.503 40.652 29.0662C37.8021 29.6294 35.1833 31.0247 33.1269 33.0758C31.0704 35.1268 29.6687 37.7413 29.099 40.5887C28.5293 43.4361 28.8171 46.3884 29.9262 49.0723C31.0353 51.7561 32.9157 54.0509 35.3297 55.6664C37.7436 57.2819 40.5827 58.1456 43.4878 58.1481C47.3808 58.1481 51.1149 56.6045 53.8707 53.8559C56.6265 51.1074 58.179 47.3784 58.1875 43.4871V43.4871Z" fill="#F2F2F2"/>
<path d="M66.8423 14.5514C67.9587 14.5514 69.0499 14.8826 69.9778 15.5031C70.9056 16.1236 71.6284 17.0054 72.0544 18.0368C72.4804 19.0682 72.5906 20.2028 72.3709 21.2969C72.1513 22.3909 71.6116 23.3952 70.8204 24.1824C70.0292 24.9696 69.0221 25.5044 67.9265 25.719C66.831 25.9335 65.6964 25.8182 64.6665 25.3877C63.6366 24.9571 62.7577 24.2307 62.1412 23.3004C61.5247 22.3701 61.1983 21.2779 61.2034 20.162C61.2219 18.6753 61.8228 17.255 62.877 16.2061C63.9312 15.1571 65.3549 14.5631 66.8423 14.5514V14.5514Z" fill="#F2F2F2"/>
</g>
<defs>
<clipPath id="clip0_2_113">
<rect width="87" height="87" fill="white"/>
</clipPath>
</defs>
</svg>
