<svg width="92" height="61" viewBox="0 0 92 61" fill="none" xmlns="http://www.w3.org/2000/svg">
<path d="M45.8649 60.9946C33.6336 60.9946 21.4042 60.9946 9.17656 60.9946C3.03744 60.9946 0.0112826 57.9883 0.00585938 51.8883C0.00585938 37.5639 0.00585938 23.2395 0.00585938 8.91502C0.00585938 3.00633 2.9561 0.0164523 8.74813 0.0109863H83.2039C88.9688 0.0109863 91.9787 3.05552 91.9841 8.89316C91.9841 23.3087 91.9841 37.7224 91.9841 52.1343C91.9841 57.8407 88.8387 60.9837 83.0846 60.9946C70.6798 61.0128 58.2732 61.0128 45.8649 60.9946ZM6.05819 3.60212L45.9841 36.9444L85.8993 3.60212H6.05819ZM59.1247 30.5001C55.7081 33.3478 52.0745 36.1409 48.7012 39.2456C46.6349 41.1641 45.2086 41.0001 43.2291 39.1964C39.8396 36.1191 36.2277 33.2986 33.1853 30.7734L6.90964 57.152H85.3678L59.1247 30.5001ZM62.7745 27.4391L88.3289 53.5828V6.11099L62.7745 27.4391ZM29.5192 27.6905L3.62316 6.10552V53.9162L29.5192 27.6905Z" fill="#F2F2F2"/>
</svg>
