<svg width="43" height="77" viewBox="0 0 43 77" fill="none" xmlns="http://www.w3.org/2000/svg">
<path d="M4.75426 76.9827C3.61902 76.734 2.56662 76.1906 1.69972 75.4057C1.14004 74.8448 0.700442 74.1726 0.408437 73.4312C0.116431 72.6897 -0.0216902 71.895 0.00276205 71.0968V64.711C0.00276205 45.1774 0.00276205 25.6437 0.00276205 6.11001C0.00276205 3.64532 0.90217 1.68911 3.15064 0.611883C3.94774 0.232844 4.81598 0.0329389 5.69609 0.0258534C16.2229 -0.00861779 26.7525 -0.00861779 37.285 0.0258534C40.6789 0.0258534 42.9953 2.48192 42.9953 6.05831C42.9953 23.449 42.9953 40.8368 42.9953 58.2218C42.9953 62.2032 42.9104 66.1933 42.9953 70.1747C43.0801 73.2857 42.0365 76.0262 38.2183 77L4.75426 76.9827ZM4.20275 9.50542V59.1525H38.8293V9.50542H4.20275ZM21.4439 6.12726H28.8596C29.776 6.12726 30.1153 5.75668 30.1238 4.79149C30.1323 3.8263 29.8014 3.42989 28.902 3.42989C23.9893 3.42989 19.0766 3.42989 14.1554 3.42989C13.1712 3.42989 12.9506 3.95557 12.9336 4.80012C12.9167 5.64466 13.2815 6.14449 14.1894 6.14449L21.4439 6.12726ZM21.5203 64.3232C20.829 64.3283 20.1547 64.5409 19.5821 64.9344C19.0096 65.3278 18.5644 65.8844 18.3026 66.5342C18.0408 67.184 17.974 67.8979 18.1107 68.5861C18.2474 69.2744 18.5815 69.9061 19.0709 70.402C19.5603 70.8979 20.1831 71.2356 20.861 71.3728C21.539 71.51 22.2417 71.4405 22.8808 71.173C23.5199 70.9055 24.0669 70.452 24.4529 69.8695C24.8388 69.2871 25.0466 68.6017 25.0499 67.8996C25.0477 66.9503 24.6748 66.0406 24.0131 65.3702C23.3514 64.6997 22.4549 64.3232 21.5203 64.3232Z" fill="#F2F2F2"/>
</svg>
